<?xml version="1.0" encoding="utf-8"?>
<!-- Generator: Adobe Illustrator 25.1.0, SVG Export Plug-In . SVG Version: 6.00 Build 0)  -->
<svg version="1.1" id="Layer_1" xmlns="http://www.w3.org/2000/svg" xmlns:xlink="http://www.w3.org/1999/xlink" x="0px" y="0px"
	 viewBox="0 0 17 17" style="enable-background:new 0 0 17 17;" xml:space="preserve">
<style type="text/css">
	.st0{fill:#FFFFFF;}
</style>
<path class="st0" d="M8.5,1.6c2.3,0,2.6,0,3.5,0.1c2.3,0.1,3.4,1.2,3.5,3.5c0.1,0.9,0.1,1.1,0.1,3.4c0,2.3,0,2.6-0.1,3.4
	c-0.1,2.3-1.2,3.4-3.5,3.5c-0.9,0.1-1.1,0.1-3.5,0.1c-2.3,0-2.6,0-3.4-0.1c-2.3-0.1-3.4-1.2-3.5-3.5C1.6,11,1.6,10.8,1.6,8.5
	c0-2.3,0-2.6,0.1-3.4c0.1-2.3,1.2-3.4,3.5-3.5C5.9,1.6,6.2,1.6,8.5,1.6z M8.5,0C6.2,0,5.9,0,5,0.1c-3.1,0.1-4.8,1.8-5,5
	C0,5.9,0,6.2,0,8.5s0,2.6,0.1,3.5c0.1,3.1,1.8,4.8,5,5C5.9,17,6.2,17,8.5,17s2.6,0,3.5-0.1c3.1-0.1,4.8-1.8,5-5
	C17,11.1,17,10.8,17,8.5s0-2.6-0.1-3.5c-0.1-3.1-1.8-4.8-5-5C11.1,0,10.8,0,8.5,0z M8.5,4.1c-2.4,0-4.4,2-4.4,4.4
	c0,2.4,2,4.4,4.4,4.4c2.4,0,4.4-2,4.4-4.4C12.9,6.1,10.9,4.1,8.5,4.1z M8.5,11.3c-1.6,0-2.8-1.3-2.8-2.8c0-1.6,1.3-2.8,2.8-2.8
	c1.6,0,2.8,1.3,2.8,2.8C11.3,10.1,10.1,11.3,8.5,11.3z M13,3c-0.6,0-1,0.4-1,1c0,0.6,0.4,1,1,1c0.6,0,1-0.4,1-1C14,3.4,13.6,3,13,3z
	"/>
</svg>
