<?xml version="1.0" encoding="utf-8"?>
<!-- Generator: Adobe Illustrator 25.1.0, SVG Export Plug-In . SVG Version: 6.00 Build 0)  -->
<svg version="1.1" id="Layer_1" xmlns="http://www.w3.org/2000/svg" xmlns:xlink="http://www.w3.org/1999/xlink" x="0px" y="0px"
	 viewBox="0 0 22 24" style="enable-background:new 0 0 22 24;" xml:space="preserve">
<style type="text/css">
	.st0{fill:none;stroke:#FFFFFF;stroke-miterlimit:10;}
</style>
<path class="st0" d="M18.8,7.5L13,13.3L7.2,7.5"/>
<path class="st0" d="M13,13.3V0.5"/>
<path class="st0" d="M9.2,22.5c1.1,0,1.9-0.9,1.9-1.9c0-1.1-0.9-1.9-1.9-1.9c-1.1,0-1.9,0.9-1.9,1.9C7.3,21.6,8.1,22.5,9.2,22.5z"/>
<path class="st0" d="M16.9,22.5c1.1,0,1.9-0.9,1.9-1.9c0-1.1-0.9-1.9-1.9-1.9S15,19.5,15,20.6C15,21.6,15.9,22.5,16.9,22.5z"/>
<path class="st0" d="M21.2,8.2c0,0,0,9.6-4.6,9.6l-7,0c-4.6,0-4.7-10-4.7-10H0"/>
</svg>
