<?xml version="1.0" encoding="utf-8"?>
<!-- Generator: Adobe Illustrator 25.1.0, SVG Export Plug-In . SVG Version: 6.00 Build 0)  -->
<svg version="1.1" id="Layer_1" xmlns="http://www.w3.org/2000/svg" xmlns:xlink="http://www.w3.org/1999/xlink" x="0px" y="0px"
	 viewBox="0 0 17 17" style="enable-background:new 0 0 17 17;" xml:space="preserve">
<style type="text/css">
	.st0{fill:#FFFFFF;}
</style>
<path class="st0" d="M13.5,0H3.5C1.6,0,0,1.6,0,3.5v9.9c0,2,1.6,3.5,3.5,3.5h9.9c2,0,3.5-1.6,3.5-3.5V3.5C17,1.6,15.4,0,13.5,0z
	 M11.3,5H10C9.6,5,9.2,5.2,9.2,5.6v0.8h2.1l-0.1,2.1h-2v5.7H7.1V8.5H5.7V6.4h1.4V5c0-1.4,0.8-2.2,2.5-2.2h1.8V5z"/>
</svg>
